<?xml version="1.0" encoding="UTF-8"?>
<svg width="56px" height="56px" viewBox="0 0 56 56" version="1.1" xmlns="http://www.w3.org/2000/svg" xmlns:xlink="http://www.w3.org/1999/xlink">
    <!-- Generator: Sketch 63.1 (92452) - https://sketch.com -->
    <title>Benefits_2</title>
    <desc>Created with Sketch.</desc>
    <g id="Final" stroke="none" stroke-width="1" fill="none" fill-rule="evenodd">
        <g id="Seasons---Homepage" transform="translate(-612.000000, -3680.000000)">
            <g id="Group-13" transform="translate(0.000000, 1683.000000)">
                <g id="Benefits" transform="translate(0.000000, 1776.000000)">
                    <g id="Group-19" transform="translate(65.000000, 221.000000)">
                        <g id="2" transform="translate(410.000000, 0.000000)">
                            <g id="Benefits_2" transform="translate(137.000000, 0.000000)">
                                <rect id="Rectangle" fill="#FFFFFF" x="0" y="0" width="56" height="56"></rect>
                                <path d="M19.0265038,27.1679053 C18.5738521,28.9424434 18.0794823,30.2206409 17.554697,31.0078188 C16.9365213,31.9350825 15.7936026,32.9168529 14.1082279,33.9366039 C15.7570373,34.7136015 16.899014,35.6049876 17.554697,36.5885121 C18.1031,37.4111166 18.6006805,38.7509213 19.0347343,40.6142604 C19.5225064,38.7406901 20.0425989,37.400576 20.5839749,36.5885121 C21.2308018,35.6182716 22.3377362,34.7303274 23.9238111,33.9445188 C22.3380027,32.95917 21.2292802,31.9757769 20.5839749,31.0078188 C20.0381376,30.1890629 19.5159152,28.9106577 19.0265038,27.1679053 Z" id="Polygon-Copy-2" stroke="#000000" fill="#FFFFFF"></path>
                                <path d="M37.0265038,31.1679053 C36.5738521,32.9424434 36.0794823,34.2206409 35.554697,35.0078188 C34.9365213,35.9350825 33.7936026,36.9168529 32.1082279,37.9366039 C33.7570373,38.7136015 34.899014,39.6049876 35.554697,40.5885121 C36.1031,41.4111166 36.6006805,42.7509213 37.0347343,44.6142604 C37.5225064,42.7406901 38.0425989,41.400576 38.5839749,40.5885121 C39.2308018,39.6182716 40.3377362,38.7303274 41.9238111,37.9445188 C40.3380027,36.95917 39.2292802,35.9757769 38.5839749,35.0078188 C38.0381376,34.1890629 37.5159152,32.9106577 37.0265038,31.1679053 Z" id="Polygon-Copy-3" stroke="#000000" fill="#FFFFFF"></path>
                                <path d="M30.0265038,11.1679053 C29.5738521,12.9424434 29.0794823,14.2206409 28.554697,15.0078188 C27.9365213,15.9350825 26.7936026,16.9168529 25.1082279,17.9366039 C26.7570373,18.7136015 27.899014,19.6049876 28.554697,20.5885121 C29.1031,21.4111166 29.6006805,22.7509213 30.0347343,24.6142604 C30.5225064,22.7406901 31.0425989,21.400576 31.5839749,20.5885121 C32.2308018,19.6182716 33.3377362,18.7303274 34.9238111,17.9445188 C33.3380027,16.95917 32.2292802,15.9757769 31.5839749,15.0078188 C31.0381376,14.1890629 30.5159152,12.9106577 30.0265038,11.1679053 Z" id="Polygon-Copy-4" stroke="#000000" opacity="0.900000036"></path>
                            </g>
                        </g>
                    </g>
                </g>
            </g>
        </g>
    </g>
</svg>