<?xml version="1.0" encoding="UTF-8"?>
<svg width="56px" height="56px" viewBox="0 0 56 56" version="1.1" xmlns="http://www.w3.org/2000/svg" xmlns:xlink="http://www.w3.org/1999/xlink">
    <!-- Generator: Sketch 63.1 (92452) - https://sketch.com -->
    <title>Benefits_1</title>
    <desc>Created with Sketch.</desc>
    <g id="Final" stroke="none" stroke-width="1" fill="none" fill-rule="evenodd">
        <g id="Seasons---Homepage" transform="translate(-202.000000, -3680.000000)">
            <g id="Group-13" transform="translate(0.000000, 1683.000000)">
                <g id="Benefits" transform="translate(0.000000, 1776.000000)">
                    <g id="Group-19" transform="translate(65.000000, 221.000000)">
                        <g id="1">
                            <g id="Benefits_1" transform="translate(137.000000, 0.000000)">
                                <rect id="Rectangle" fill="#FFFFFF" x="0" y="0" width="56" height="56"></rect>
                                <g id="RightArrow" transform="translate(11.000000, 30.000000)" stroke="#000000" stroke-linecap="round" stroke-linejoin="round">
                                    <line x1="33" y1="7" x2="26" y2="1.30104261e-17" id="Path-2"></line>
                                    <line x1="33" y1="14" x2="26" y2="7" id="Path-2-Copy" transform="translate(29.500000, 10.500000) scale(1, -1) translate(-29.500000, -10.500000) "></line>
                                    <line x1="0" y1="7" x2="32" y2="7" id="Path"></line>
                                </g>
                                <g id="RightArrow-Copy" transform="translate(27.000000, 19.000000) scale(-1, 1) translate(-27.000000, -19.000000) translate(11.000000, 12.000000)" stroke="#000000" stroke-linecap="round" stroke-linejoin="round">
                                    <line x1="32" y1="7" x2="25" y2="1.30104261e-17" id="Path-2"></line>
                                    <line x1="32" y1="14" x2="25" y2="7" id="Path-2-Copy" transform="translate(28.500000, 10.500000) scale(1, -1) translate(-28.500000, -10.500000) "></line>
                                    <line x1="0" y1="7" x2="32" y2="7" id="Path"></line>
                                </g>
                            </g>
                        </g>
                    </g>
                </g>
            </g>
        </g>
    </g>
</svg>