<?xml version="1.0" encoding="UTF-8"?>
<svg width="56px" height="56px" viewBox="0 0 56 56" version="1.1" xmlns="http://www.w3.org/2000/svg" xmlns:xlink="http://www.w3.org/1999/xlink">
    <!-- Generator: Sketch 63.1 (92452) - https://sketch.com -->
    <title>Benefits_5</title>
    <desc>Created with Sketch.</desc>
    <g id="Final" stroke="none" stroke-width="1" fill="none" fill-rule="evenodd">
        <g id="Seasons---Homepage" transform="translate(-612.000000, -3896.000000)" fill="#FFFFFF">
            <g id="Group-13" transform="translate(0.000000, 1683.000000)">
                <g id="Benefits" transform="translate(0.000000, 1776.000000)">
                    <g id="Group-19" transform="translate(65.000000, 221.000000)">
                        <g id="5" transform="translate(410.000000, 216.000000)">
                            <g id="Benefits_5" transform="translate(137.000000, 0.000000)">
                                <rect id="Rectangle" x="0" y="0" width="56" height="56"></rect>
                                <path d="M14.5747279,7 L15.5454545,7 L15.5454545,7 C16.4242424,9.55555556 17.7424242,10.8333333 19.5,10.8333333 C21.2575758,10.8333333 22.5757576,9.55555556 23.4545455,7 L24.4252721,7 C26.3194626,7 28.1194211,7.82626918 29.3542466,9.26264088 L34,14.6666667 L34,14.6666667 L30.0454545,18.5 L27.4090909,16.5521376 L27.4090909,30 L11.5909091,30 L11.5909091,16.5521376 L8.95454545,18.5 L5,14.6666667 L9.64575339,9.26264088 C10.8805789,7.82626918 12.6805374,7 14.5747279,7 Z" id="Rectangle" stroke="#000000"></path>
                                <path d="M34,24 L50,24 L50,50 L44.2857143,50 C43.5238095,37.8666667 42.7619048,31.8 42,31.8 C41.2380952,31.8 40.4761905,37.8666667 39.7142857,50 L34,50 L34,24 Z" id="Rectangle" stroke="#000000"></path>
                            </g>
                        </g>
                    </g>
                </g>
            </g>
        </g>
    </g>
</svg>