<?xml version="1.0" encoding="UTF-8"?>
<svg width="64px" height="76px" viewBox="0 0 64 76" version="1.1" xmlns="http://www.w3.org/2000/svg" xmlns:xlink="http://www.w3.org/1999/xlink">
    <!-- Generator: Sketch 59.1 (86144) - https://sketch.com -->
    <title>Apple</title>
    <desc>Created with Sketch.</desc>
    <g id="WAITLIST-/-ACCOUNT-CREATION" stroke="none" stroke-width="1" fill="none" fill-rule="evenodd">
        <g id="Waitlist---Payment-Information---5" transform="translate(-991.000000, -459.000000)" fill="#FFFFFF" fill-rule="nonzero">
            <g id="CTA" transform="translate(471.000000, 459.000000)">
                <g id="Group-2">
                    <g id="IOS" transform="translate(185.000000, 0.000000)">
                        <g id="Apple" transform="translate(335.000000, 0.000000)">
                            <path d="M62.6586778,59.2120224 C61.5096237,61.8665741 60.1495174,64.3100736 58.5736704,66.5565952 C56.4256397,69.6191744 54.6668826,71.7390656 53.3114662,72.9162624 C51.2103379,74.8485504 48.9591277,75.838144 46.5484563,75.8944256 C44.8178394,75.8944256 42.7307795,75.4019712 40.3013491,74.4030016 C37.8639462,73.4087104 35.6239917,72.9162624 33.5758592,72.9162624 C31.4278298,72.9162624 29.1240909,73.4087104 26.6599546,74.4030016 C24.1920634,75.4019712 22.2039648,75.9225664 20.6839283,75.9741568 C18.372217,76.0726464 16.0680115,75.054912 13.7680237,72.9162624 C12.3000486,71.6358848 10.4639059,69.4409536 8.2642848,66.3314688 C5.90426726,63.0109389 3.96400563,59.160432 2.44396979,54.7705728 C0.81606368,50.0289613 0,45.437431 0,40.992231 C0,35.9002758 1.10027898,31.5085402 3.30411962,27.8282803 C5.03614426,24.8721619 7.34035136,22.5402829 10.2242438,20.8284243 C13.1081389,19.1165683 16.2241888,18.2442246 19.5798995,18.1884122 C21.416041,18.1884122 23.8238995,18.7563738 26.8161318,19.872599 C29.7999232,20.992576 31.7157971,21.5605376 32.5557786,21.5605376 C33.1837722,21.5605376 35.3121037,20.8964294 38.920137,19.5724384 C42.3321286,18.3445907 45.2118003,17.8361907 47.5708806,18.0364544 C53.9633798,18.5523571 58.765961,21.0723059 61.9598656,25.6122458 C56.2427309,29.0762957 53.4146477,33.9281216 53.4709274,40.1522477 C53.5225178,45.0003213 55.2812749,49.0346765 58.7378202,52.2379629 C60.3042861,53.724697 62.0536653,54.8737523 64.0000192,55.689817 C63.5779232,56.9139117 63.1323712,58.0864173 62.6586778,59.2120224 Z M47.9976742,1.52007917 C47.9976742,5.31997869 46.6094259,8.86793408 43.8423155,12.1518848 C40.5030182,16.0558598 36.4639744,18.3117587 32.0839629,17.9557869 C32.0281523,17.4999162 31.9957907,17.020128 31.9957907,16.5159514 C31.9957907,12.8680518 33.5838323,8.96407872 36.403943,5.77205037 C37.8118848,4.15587053 39.602535,2.81203885 41.7740154,1.74003885 C43.9408045,0.684033728 45.9903443,0.100040154 47.9179411,3.37500006e-05 C47.9742253,0.508020954 47.9976742,1.01604013 47.9976742,1.52002989 L47.9976742,1.52007917 Z" id="path4"></path>
                        </g>
                    </g>
                </g>
            </g>
        </g>
    </g>
</svg>