<?xml version="1.0" encoding="UTF-8"?>
<svg width="65px" height="53px" viewBox="0 0 65 53" version="1.1" xmlns="http://www.w3.org/2000/svg" xmlns:xlink="http://www.w3.org/1999/xlink">
    <!-- Generator: Sketch 58 (84663) - https://sketch.com -->
    <title>Logo__x2014__FIXED</title>
    <desc>Created with Sketch.</desc>
    <g id="WAITLIST-/-ACCOUNT-CREATION" stroke="none" stroke-width="1" fill="none" fill-rule="evenodd">
        <g id="Waitlist---12" transform="translate(-763.000000, -799.000000)" fill="#FFFFFF" fill-rule="nonzero">
            <g id="CTA-Copy" transform="translate(763.000000, 799.000000)">
                <g id="twitter">
                    <g id="Twitter_Logo_WhiteOnImage">
                        <g id="Logo__x2014__FIXED" transform="translate(0.312500, 0.235000)">
                            <path d="M20.2395,52.427 C44.52175,52.427 57.80875,32.2905 57.80875,14.85775 C57.80875,14.29125 57.80875,13.72475 57.783,13.15825 C60.358,11.30425 62.59825,8.961 64.375,6.30875 C62.006,7.3645 59.45675,8.05975 56.77875,8.3945 C59.50825,6.77225 61.594,4.1715 62.59825,1.0815 C60.049,2.60075 57.2165,3.68225 54.20375,4.2745 C51.78325,1.6995 48.3585,0.103 44.57325,0.103 C37.286,0.103 31.3635,6.0255 31.3635,13.31275 C31.3635,14.34275 31.49225,15.347 31.69825,16.3255 C20.72875,15.78475 10.99525,10.506 4.4805,2.5235 C3.3475,4.4805 2.70375,6.7465 2.70375,9.167 C2.70375,13.7505 5.047,17.79325 8.57475,20.16225 C6.41175,20.085 4.3775,19.49275 2.60075,18.51425 C2.60075,18.56575 2.60075,18.61725 2.60075,18.6945 C2.60075,25.0805 7.1585,30.4365 13.184,31.64675 C12.07675,31.95575 10.918,32.11025 9.70775,32.11025 C8.858,32.11025 8.034,32.033 7.23575,31.8785 C8.9095,37.1315 13.802,40.9425 19.57,41.0455 C15.038,44.599 9.34725,46.7105 3.16725,46.7105 C2.1115,46.7105 1.05575,46.659 0.02575,46.53025 C5.84525,50.23825 12.79775,52.427 20.2395,52.427" id="Path"></path>
                        </g>
                    </g>
                </g>
            </g>
        </g>
    </g>
</svg>